<mxfile host="65bd71144e">
    <diagram id="QLeNt2GK8IAAdRDBdB51" name="PÃ¡gina-1">
        <mxGraphModel dx="1294" dy="654" grid="1" gridSize="10" guides="1" tooltips="1" connect="1" arrows="1" fold="1" page="1" pageScale="1" pageWidth="827" pageHeight="1169" math="0" shadow="0">
            <root>
                <mxCell id="0"/>
                <mxCell id="1" parent="0"/>
                <mxCell id="3" value="m1" style="ellipse;whiteSpace=wrap;html=1;aspect=fixed;" vertex="1" parent="1">
                    <mxGeometry x="100" y="190" width="80" height="80" as="geometry"/>
                </mxCell>
                <mxCell id="4" value="m2" style="ellipse;whiteSpace=wrap;html=1;aspect=fixed;" vertex="1" parent="1">
                    <mxGeometry x="240" y="190" width="80" height="80" as="geometry"/>
                </mxCell>
                <mxCell id="5" value="m2" style="ellipse;whiteSpace=wrap;html=1;aspect=fixed;" vertex="1" parent="1">
                    <mxGeometry x="380" y="190" width="80" height="80" as="geometry"/>
                </mxCell>
                <mxCell id="6" value="m2" style="ellipse;whiteSpace=wrap;html=1;aspect=fixed;" vertex="1" parent="1">
                    <mxGeometry x="530" y="190" width="80" height="80" as="geometry"/>
                </mxCell>
                <mxCell id="7" value="m1" style="ellipse;whiteSpace=wrap;html=1;aspect=fixed;" vertex="1" parent="1">
                    <mxGeometry x="100" y="330" width="80" height="80" as="geometry"/>
                </mxCell>
                <mxCell id="8" value="m2" style="ellipse;whiteSpace=wrap;html=1;aspect=fixed;" vertex="1" parent="1">
                    <mxGeometry x="240" y="330" width="80" height="80" as="geometry"/>
                </mxCell>
                <mxCell id="9" value="m2" style="ellipse;whiteSpace=wrap;html=1;aspect=fixed;" vertex="1" parent="1">
                    <mxGeometry x="380" y="330" width="80" height="80" as="geometry"/>
                </mxCell>
                <mxCell id="10" value="m2" style="ellipse;whiteSpace=wrap;html=1;aspect=fixed;" vertex="1" parent="1">
                    <mxGeometry x="530" y="330" width="80" height="80" as="geometry"/>
                </mxCell>
                <mxCell id="11" value="m1" style="ellipse;whiteSpace=wrap;html=1;aspect=fixed;" vertex="1" parent="1">
                    <mxGeometry x="110" y="480" width="80" height="80" as="geometry"/>
                </mxCell>
                <mxCell id="12" value="m2" style="ellipse;whiteSpace=wrap;html=1;aspect=fixed;" vertex="1" parent="1">
                    <mxGeometry x="250" y="480" width="80" height="80" as="geometry"/>
                </mxCell>
                <mxCell id="13" value="m2" style="ellipse;whiteSpace=wrap;html=1;aspect=fixed;" vertex="1" parent="1">
                    <mxGeometry x="390" y="480" width="80" height="80" as="geometry"/>
                </mxCell>
                <mxCell id="14" value="m2" style="ellipse;whiteSpace=wrap;html=1;aspect=fixed;" vertex="1" parent="1">
                    <mxGeometry x="540" y="480" width="80" height="80" as="geometry"/>
                </mxCell>
                <mxCell id="15" value="m1" style="ellipse;whiteSpace=wrap;html=1;aspect=fixed;" vertex="1" parent="1">
                    <mxGeometry x="110" y="630" width="80" height="80" as="geometry"/>
                </mxCell>
                <mxCell id="16" value="m2" style="ellipse;whiteSpace=wrap;html=1;aspect=fixed;" vertex="1" parent="1">
                    <mxGeometry x="250" y="630" width="80" height="80" as="geometry"/>
                </mxCell>
                <mxCell id="17" value="m2" style="ellipse;whiteSpace=wrap;html=1;aspect=fixed;" vertex="1" parent="1">
                    <mxGeometry x="390" y="630" width="80" height="80" as="geometry"/>
                </mxCell>
                <mxCell id="18" value="m2" style="ellipse;whiteSpace=wrap;html=1;aspect=fixed;" vertex="1" parent="1">
                    <mxGeometry x="540" y="630" width="80" height="80" as="geometry"/>
                </mxCell>
            </root>
        </mxGraphModel>
    </diagram>
</mxfile>